<svg width="137" height="206" viewBox="0 0 137 206" fill="none" xmlns="http://www.w3.org/2000/svg">
<path fill-rule="evenodd" clip-rule="evenodd" d="M68.9568 62.2449C52.1865 29.052 22.3593 9.36331 0 1.41332L0.502514 0C23.1432 8.05003 53.316 27.9614 70.2957 61.5685C86.2865 93.2185 90.5211 136.905 65.9278 194.059C75.8278 180.474 88.0198 173.66 99.8411 170.865C114.305 167.444 128.166 170.047 136.538 173.514L135.964 174.9C127.836 171.534 114.298 168.987 100.186 172.324C86.1097 175.654 71.4154 184.848 60.9168 205.053L60.2489 204.706L59.5753 204.382L59.6885 204.146L59.5056 204.127C62.8913 172.659 56.0301 153.902 46.2477 143.2C36.4559 132.488 23.624 129.72 14.8135 130.454L14.689 128.959C23.8785 128.194 37.1966 131.075 47.3548 142.188C57.1249 152.877 63.8676 171.062 61.3505 200.623C89.3356 140.264 85.3687 94.7283 68.9568 62.2449Z" fill="white"/>
</svg>
