<svg width="16" height="11" viewBox="0 0 16 11" fill="none" xmlns="http://www.w3.org/2000/svg">
<path fill-rule="evenodd" clip-rule="evenodd" d="M11.74 3.82742C10.7511 2.75251 10.1683 1.38192 10.0051 0.155363L11.3281 0C11.4612 1.00025 11.9451 2.13481 12.7488 3.00835C13.5392 3.86748 14.6184 4.45659 15.9822 4.46167C15.9881 4.46165 15.994 4.46164 16 4.46164V5.71421L16 5.71427L15.9999 5.71427L15.9897 5.71427H15.9793C14.6591 5.72114 13.5864 6.38676 12.7801 7.40918C11.9638 8.44432 11.4668 9.79618 11.3295 11L10.0038 10.8666C10.1628 9.47245 10.7325 7.90163 11.7088 6.66357C11.9792 6.32057 12.2844 5.99949 12.6236 5.71427L0 5.71427L0 4.46169L12.4173 4.46169C12.1731 4.26558 11.9472 4.05261 11.74 3.82742Z" fill="white"/>
</svg>
