<svg width="28" height="13" viewBox="0 0 28 13" fill="none" xmlns="http://www.w3.org/2000/svg">
<path fill-rule="evenodd" clip-rule="evenodd" d="M23.2075 4.52331C22.095 3.25297 21.4393 1.63317 21.2557 0.183611L22.7442 0C22.8939 1.18211 23.4382 2.52296 24.3424 3.55533C25.2316 4.57066 26.4457 5.26687 27.9799 5.27288C27.9866 5.27285 27.9933 5.27284 28 5.27284V6.75316L27.9884 6.75322H27.9768C26.4915 6.76135 25.2847 7.54799 24.3776 8.75631C23.4593 9.97965 22.9002 11.5773 22.7457 13L21.2543 12.8423C21.4331 11.1947 22.074 9.33829 23.1724 7.87513C23.4766 7.46976 23.8199 7.0903 24.2015 6.75322L0 6.75322V5.27291L23.9695 5.27291C23.6947 5.04114 23.4406 4.78945 23.2075 4.52331Z" fill="white"/>
</svg>
