<svg width="51" height="47" viewBox="0 0 51 47" fill="none" xmlns="http://www.w3.org/2000/svg">
<path d="M50.8165 20.8698L42.5396 3.50715C42.4835 3.38519 42.3905 3.27691 42.2909 3.19362C42.1321 3.05619 41.9299 2.97468 41.7017 2.97468H29.435C29.0269 1.27197 27.4844 0 25.6443 0C23.8042 0 22.2611 1.27197 21.8536 2.97468H9.55246C9.16005 2.97468 8.82922 3.22158 8.70365 3.56546C8.60404 3.64875 8.5165 3.74751 8.46036 3.86947L0.183527 21.2321C0.183527 21.2321 0 21.5379 0 21.8615C0 27.3986 4.33341 31.9029 9.65932 31.9029C14.9852 31.9029 19.3186 27.3986 19.3186 21.8615C19.3186 21.5754 19.2903 21.4915 19.0621 21.0667L10.5601 4.75949H21.853C22.1905 6.16771 23.3043 7.27727 24.7212 7.61995V41.0506H16.1009C15.6004 41.0506 15.1953 41.4498 15.1953 41.943V46.1076C15.1953 46.6008 15.6004 47 16.1009 47H35.265C35.7654 47 36.1705 46.6008 36.1705 46.1076V41.943C36.1705 41.4498 35.7654 41.0506 35.265 41.0506H26.5329V7.62887C27.9661 7.29571 29.0957 6.17901 29.4356 4.75949H40.2407L31.9379 20.7044C31.7097 21.1292 31.6814 21.2131 31.6814 21.4992C31.6814 27.0363 36.0148 31.5406 41.3407 31.5406C46.6666 31.5406 51 27.0363 51 21.4992C51 21.1756 50.8165 20.8698 50.8165 20.8698ZM9.65932 30.1175C5.61871 30.1175 2.28081 26.8876 1.8564 22.7534H17.4622C17.0378 26.8882 13.6999 30.1175 9.65932 30.1175ZM16.9889 20.9691L2.20776 21.1571L9.32366 6.31287L16.9889 20.9691ZM34.3594 42.8349V45.2146H17.0064V42.8349H34.3594ZM27.7156 4.03843C27.6263 5.10515 26.737 5.94877 25.6443 5.94877C24.4924 5.94877 23.5555 5.01472 23.5555 3.86649C23.5555 2.71827 24.4924 1.78421 25.6443 1.78421C26.737 1.78421 27.6263 2.62784 27.7156 3.69456C27.7047 3.75048 27.6981 3.80759 27.6981 3.86649C27.6981 3.92539 27.7047 3.9831 27.7156 4.03843ZM41.6769 5.95056L48.7928 20.7948L34.0117 20.6068L41.6769 5.95056ZM41.3407 29.7552C37.3001 29.7552 33.9622 26.5259 33.5378 22.391H49.1436C48.7192 26.5253 45.3813 29.7552 41.3407 29.7552Z" fill="#E8BF96"/>
</svg>
