<svg width="47" height="47" viewBox="0 0 47 47" fill="none" xmlns="http://www.w3.org/2000/svg">
<path d="M21.752 0.00252406C21.5651 0.0114052 21.3826 0.0893062 21.2413 0.231996L18.1255 3.36808C17.8241 3.67353 17.8241 4.16714 18.1255 4.47262L26.9151 13.3196L15.5659 24.7427L8.88436 18.0176L18.5845 8.25439C19.0935 7.75636 18.7286 6.88858 18.0191 6.90963C17.8169 6.91555 17.625 7.00083 17.4841 7.14678L7.78394 16.91L6.77623 15.8957C6.47116 15.5908 5.97864 15.5916 5.67581 15.8987L2.56302 19.0318C2.25784 19.3366 2.25707 19.8322 2.5599 20.1393L13.4577 31.1081C13.7628 31.4129 14.2553 31.4107 14.5581 31.1022L17.6709 27.9706C17.9761 27.6658 17.9769 27.1701 17.674 26.863L16.6663 25.8488L18.6772 23.8249L20.4616 25.6209C20.7644 25.9281 21.2569 25.9289 21.562 25.6239L25.7311 21.4276L43.3743 36.1459C44.8647 37.3892 44.7487 39.8187 43.3211 41.2555C41.8935 42.6924 39.4799 42.8091 38.2446 41.3091L25.1626 25.4235C24.501 24.6186 23.3018 25.6176 23.9634 26.4224L37.0454 42.308C38.9227 44.5877 42.4001 44.3977 44.4215 42.3631C46.4429 40.3286 46.6318 36.8285 44.3668 34.9389L26.8376 20.3139L27.7891 19.3562C28.0958 19.0498 28.0958 18.5505 27.7891 18.2441L26.0047 16.4496L28.0156 14.4256L29.0233 15.4399C29.3267 15.7432 29.8172 15.7432 30.1207 15.4399L33.2365 12.3038C33.5378 11.9984 33.5378 11.5063 33.2365 11.2008L22.3113 0.203719C22.1306 0.0494833 21.9389 -0.00848496 21.752 0.000988221L21.752 0.00252406ZM21.79 1.89648L31.5828 11.7531L29.572 13.777L19.7791 3.92044L21.79 1.89648ZM6.22754 17.5587L16.0219 27.4168L14.0065 29.4438L4.21213 19.5872L6.22754 17.5587ZM24.9043 17.5587L26.14 18.8024L21.0133 23.9625L19.7776 22.7187L24.9043 17.5587ZM4.66659 37.5992C3.38668 37.5992 2.33503 38.6638 2.33503 39.952V40.7323C1.05513 40.7323 0.00195834 41.7985 0.00195834 43.0867V46.2136C0.000402142 46.6464 0.347198 46.9985 0.777121 47H25.681C26.1131 47.0016 26.4639 46.6486 26.4622 46.2136V43.0867C26.4622 41.7985 25.403 40.7323 24.1231 40.7323V39.952C24.1231 38.6638 23.0714 37.5992 21.7915 37.5992H4.66659ZM4.66659 39.1658H21.7915C22.2361 39.1658 22.5667 39.5046 22.5667 39.952V40.7323H18.6787C17.6409 40.7323 17.6409 42.2988 18.6787 42.2988H24.1231C24.5676 42.2988 24.9058 42.6392 24.9058 43.0867V45.4334H1.55988V43.0867C1.55988 42.6392 1.89046 42.2988 2.33503 42.2988H15.5644C16.6023 42.2988 16.6023 40.7323 15.5644 40.7323H3.89143V39.952C3.89143 39.5046 4.22201 39.1658 4.66659 39.1658Z" fill="#E8BF96"/>
</svg>
