<svg width="48" height="47" viewBox="0 0 48 47" fill="none" xmlns="http://www.w3.org/2000/svg">
<path d="M8.61445 0.000200669C7.32611 0.000200669 6.26008 1.05777 6.26139 2.34706L6.26767 7.82883C6.24393 8.89673 7.85804 8.89673 7.83433 7.82883L7.82806 2.34706C7.82761 1.90051 8.16692 1.56074 8.61445 1.56074H32.8947V5.48188C32.8947 6.77025 33.9594 7.82883 35.2478 7.82883H39.1629V11.7502C39.1857 12.7717 40.7069 12.7717 40.7296 11.7502V7.04856C40.7296 6.84013 40.6464 6.64026 40.4986 6.49327L34.2365 0.225084C34.0885 0.0794216 33.8887 -0.00146034 33.6811 1.99671e-05L8.61445 0.000200669ZM34.4614 2.66528L38.0537 6.26224H35.2478C34.8003 6.26224 34.4614 5.92941 34.4614 5.48188V2.66528ZM11.5581 6.26224C10.4902 6.23855 10.4902 7.85255 11.5581 7.82883H28.9857C30.0536 7.85252 30.0536 6.23852 28.9857 6.26224H11.5581ZM2.36309 10.9637C1.06116 10.946 0.00390625 12.0223 0.00390625 13.3107V44.6454C0.00390625 45.9337 1.06403 47 2.35238 47H44.6509C45.9392 47 47.0039 45.9337 47.0039 44.6454V18.0122C47.0039 16.7238 45.9392 15.6652 44.6509 15.6652H19.1267L14.6577 11.1948C14.5107 11.047 14.3109 10.9638 14.1024 10.9638L2.36309 10.9637ZM19.5842 10.9637C18.5163 10.9401 18.5163 12.5541 19.5842 12.5304H35.2539C36.3218 12.5541 36.3218 10.9401 35.2539 10.9637H19.5842ZM1.57211 13.3107C1.57211 12.8632 1.9064 12.5241 2.34626 12.5304H13.778L18.2485 17.0009C18.3952 17.1483 18.5944 17.2315 18.8024 17.2318H44.6509C45.0984 17.2318 45.4372 17.5646 45.4372 18.0121V44.6468C45.4372 45.0943 45.0984 45.4332 44.6509 45.4332H2.35238C1.90487 45.4332 1.57211 45.0944 1.57211 44.6461V13.3107ZM22.7175 22.7168V24.3201C20.0769 24.4933 19.2136 25.8214 17.2357 25.85C16.5075 25.85 15.7237 25.5614 15.435 25.2946C14.633 24.5543 13.6329 25.7312 14.3319 26.4054C14.8486 26.9039 15.6485 27.1844 16.0867 27.2836L13.3833 33.3682C13.3401 33.4686 13.3193 33.5772 13.3206 33.6863C13.3206 33.6863 13.3096 34.6302 13.7948 35.6003C14.2799 36.5705 15.2939 37.6 17.2342 37.6C19.1745 37.6 20.1899 36.5705 20.675 35.6003C21.1601 34.6302 21.1478 33.6863 21.1478 33.6863C21.1493 33.5771 21.1282 33.4685 21.085 33.3682L18.3831 27.2882C19.9849 27.0339 20.9258 25.8541 23.4901 25.8531C26.0644 25.8561 27.0048 27.0395 28.6093 27.2943L25.9074 33.3743C25.8643 33.4746 25.8431 33.5833 25.8447 33.6925C25.8447 33.6925 25.8326 34.6363 26.3175 35.6065C26.8025 36.5766 27.818 37.6061 29.7583 37.6061C31.6986 37.6061 32.7126 36.5766 33.1976 35.6065C33.6829 34.6363 33.6719 33.6925 33.6719 33.6925C33.6735 33.5832 33.6524 33.4746 33.6092 33.3743L30.9058 27.2897C31.344 27.1905 32.1439 26.91 32.6606 26.4116C33.3596 25.7373 32.3595 24.5605 31.5575 25.3008C31.2688 25.5672 30.485 25.8562 29.7568 25.8562C27.7789 25.8266 26.9156 24.4993 24.275 24.3262V22.7228C24.2797 22.2901 23.9352 21.9351 23.4963 21.9273C23.0574 21.9288 22.7127 22.284 22.7176 22.7168H22.7175ZM23.4993 27.406C23.1075 27.406 22.7175 27.6668 22.7175 28.1893V39.1682H19.5444C18.4868 39.2402 18.5588 40.7608 19.5811 40.7349H23.4902V40.7408H27.4114C28.4337 40.7674 28.5057 39.2459 27.4481 39.1741H24.275V28.1953C24.275 27.6771 23.891 27.4176 23.5024 27.4135V27.4045L23.4993 27.406ZM17.2342 28.5626L19.1589 32.8985H15.311L17.2342 28.5626ZM29.7583 28.5685L31.6815 32.9044H27.8337L29.7583 28.5685ZM15.0249 34.4665H19.4449C19.4449 34.4665 19.1688 36.0331 17.2357 36.0331C15.3026 36.0331 15.0249 34.4665 15.0249 34.4665ZM27.5476 34.4724H31.9676C31.9676 34.4724 31.6899 36.0391 29.7568 36.0391C27.8237 36.0391 27.5476 34.4724 27.5476 34.4724Z" fill="#E8BF96"/>
</svg>
