<svg width="19" height="15" viewBox="0 0 19 15" fill="none" xmlns="http://www.w3.org/2000/svg">
<path fill-rule="evenodd" clip-rule="evenodd" d="M12.9844 4.81899C11.2298 4.25229 9.72675 3.10585 8.76955 1.85592L10.1029 0.857782C10.8835 1.87709 12.1293 2.82519 13.5552 3.28573C14.9576 3.73867 16.5007 3.71349 17.9803 2.86672C17.9867 2.86299 17.9931 2.85926 17.9996 2.85554L18.7967 4.23615L18.7967 4.23621L18.7967 4.23625L18.7856 4.24263L18.7743 4.24912C17.3495 5.08183 16.6118 6.48595 16.3897 8.11679C16.1647 9.76791 16.487 11.5686 17.1044 12.9813L15.5844 13.6628C14.8693 12.0268 14.4864 9.93937 14.7554 7.96457C14.8299 7.41746 14.9559 6.87286 15.1416 6.34647L1.4762 14.2362L0.679102 12.8556L14.1212 5.09478C13.732 5.03127 13.352 4.93772 12.9844 4.81899Z" fill="#1C1D20"/>
</svg>
