<svg width="50" height="38" viewBox="0 0 50 38" fill="none" xmlns="http://www.w3.org/2000/svg">
<path d="M4.49438 34.9265C1.68539 31.8529 0 28.5 0 22.9118C0 13.1324 7.02247 4.47059 16.8539 0L19.382 3.63235C10.1124 8.66177 8.14607 15.0882 7.58427 19.2794C8.98876 18.4412 10.9551 18.1618 12.9213 18.4412C17.9775 19 21.9101 22.9118 21.9101 28.2206C21.9101 30.7353 20.7865 33.25 19.1011 35.2059C17.1348 37.1618 14.8876 38 12.0787 38C8.98876 38 6.17978 36.6029 4.49438 34.9265ZM32.5843 34.9265C29.7753 31.8529 28.0899 28.5 28.0899 22.9118C28.0899 13.1324 35.1124 4.47059 44.9438 0L47.4719 3.63235C38.2022 8.66177 36.236 15.0882 35.6742 19.2794C37.0787 18.4412 39.0449 18.1618 41.0112 18.4412C46.0674 19 50 22.9118 50 28.2206C50 30.7353 48.8764 33.25 47.191 35.2059C45.5056 37.1618 42.9775 38 40.1685 38C37.0787 38 34.2697 36.6029 32.5843 34.9265Z" fill="#7FCDA3"/>
</svg>
